<svg version="1.1" xmlns="http://www.w3.org/2000/svg" xmlns:xlink="http://www.w3.org/1999/xlink" width="1070" height="662"><defs><clipPath id="etuuloHknQqk"><path fill="none" stroke="none" d=" M 0 0 L 1070 0 L 1070 662 L 0 662 L 0 0 Z"/></clipPath></defs><g transform="scale(1,1)" clip-path="url(#etuuloHknQqk)"><g><rect fill="rgb(255,255,255)" stroke="none" x="0" y="0" width="1070" height="662" fill-opacity="1"/><path fill="none" stroke="rgb(37,37,37)" paint-order="fill stroke markers" d=" M 536.5 2.5 L 536.5 662.5" stroke-opacity="1" stroke-miterlimit="10"/><path fill="none" stroke="rgb(37,37,37)" paint-order="fill stroke markers" d=" M 536.5 1.5 L 532.5 5.5" stroke-opacity="1" stroke-miterlimit="10"/><path fill="none" stroke="rgb(37,37,37)" paint-order="fill stroke markers" d=" M 536.5 1.5 L 540.5 5.5" stroke-opacity="1" stroke-miterlimit="10"/><path fill="none" stroke="rgb(37,37,37)" paint-order="fill stroke markers" d=" M 0.5 594.5 L 1068.5 594.5" stroke-opacity="1" stroke-miterlimit="10"/><path fill="none" stroke="rgb(37,37,37)" paint-order="fill stroke markers" d=" M 1069.5 594.5 L 1065.5 590.5" stroke-opacity="1" stroke-miterlimit="10"/><path fill="none" stroke="rgb(37,37,37)" paint-order="fill stroke markers" d=" M 1069.5 594.5 L 1065.5 598.5" stroke-opacity="1" stroke-miterlimit="10"/><text fill="rgb(37,37,37)" stroke="none" font-family="geogebra-sans-serif, sans-serif" font-size="12px" font-style="normal" font-weight="normal" text-decoration="normal" x="77" y="610" text-anchor="start" dominant-baseline="alphabetic" fill-opacity="1">–10</text><path fill="none" stroke="rgb(37,37,37)" paint-order="fill stroke markers" d=" M 85.5 594.5 L 85.5 597.5" stroke-opacity="1" stroke-miterlimit="10"/><text fill="rgb(37,37,37)" stroke="none" font-family="geogebra-sans-serif, sans-serif" font-size="12px" font-style="normal" font-weight="normal" text-decoration="normal" x="170" y="610" text-anchor="start" dominant-baseline="alphabetic" fill-opacity="1">–8</text><path fill="none" stroke="rgb(37,37,37)" paint-order="fill stroke markers" d=" M 175.5 594.5 L 175.5 597.5" stroke-opacity="1" stroke-miterlimit="10"/><text fill="rgb(37,37,37)" stroke="none" font-family="geogebra-sans-serif, sans-serif" font-size="12px" font-style="normal" font-weight="normal" text-decoration="normal" x="260" y="610" text-anchor="start" dominant-baseline="alphabetic" fill-opacity="1">–6</text><path fill="none" stroke="rgb(37,37,37)" paint-order="fill stroke markers" d=" M 265.5 594.5 L 265.5 597.5" stroke-opacity="1" stroke-miterlimit="10"/><text fill="rgb(37,37,37)" stroke="none" font-family="geogebra-sans-serif, sans-serif" font-size="12px" font-style="normal" font-weight="normal" text-decoration="normal" x="351" y="610" text-anchor="start" dominant-baseline="alphabetic" fill-opacity="1">–4</text><path fill="none" stroke="rgb(37,37,37)" paint-order="fill stroke markers" d=" M 356.5 594.5 L 356.5 597.5" stroke-opacity="1" stroke-miterlimit="10"/><text fill="rgb(37,37,37)" stroke="none" font-family="geogebra-sans-serif, sans-serif" font-size="12px" font-style="normal" font-weight="normal" text-decoration="normal" x="441" y="610" text-anchor="start" dominant-baseline="alphabetic" fill-opacity="1">–2</text><path fill="none" stroke="rgb(37,37,37)" paint-order="fill stroke markers" d=" M 446.5 594.5 L 446.5 597.5" stroke-opacity="1" stroke-miterlimit="10"/><path fill="none" stroke="rgb(37,37,37)" paint-order="fill stroke markers" d=" M 536.5 594.5 L 536.5 597.5" stroke-opacity="1" stroke-miterlimit="10"/><text fill="rgb(37,37,37)" stroke="none" font-family="geogebra-sans-serif, sans-serif" font-size="12px" font-style="normal" font-weight="normal" text-decoration="normal" x="624" y="610" text-anchor="start" dominant-baseline="alphabetic" fill-opacity="1">2</text><path fill="none" stroke="rgb(37,37,37)" paint-order="fill stroke markers" d=" M 626.5 594.5 L 626.5 597.5" stroke-opacity="1" stroke-miterlimit="10"/><text fill="rgb(37,37,37)" stroke="none" font-family="geogebra-sans-serif, sans-serif" font-size="12px" font-style="normal" font-weight="normal" text-decoration="normal" x="715" y="610" text-anchor="start" dominant-baseline="alphabetic" fill-opacity="1">4</text><path fill="none" stroke="rgb(37,37,37)" paint-order="fill stroke markers" d=" M 717.5 594.5 L 717.5 597.5" stroke-opacity="1" stroke-miterlimit="10"/><text fill="rgb(37,37,37)" stroke="none" font-family="geogebra-sans-serif, sans-serif" font-size="12px" font-style="normal" font-weight="normal" text-decoration="normal" x="805" y="610" text-anchor="start" dominant-baseline="alphabetic" fill-opacity="1">6</text><path fill="none" stroke="rgb(37,37,37)" paint-order="fill stroke markers" d=" M 807.5 594.5 L 807.5 597.5" stroke-opacity="1" stroke-miterlimit="10"/><text fill="rgb(37,37,37)" stroke="none" font-family="geogebra-sans-serif, sans-serif" font-size="12px" font-style="normal" font-weight="normal" text-decoration="normal" x="895" y="610" text-anchor="start" dominant-baseline="alphabetic" fill-opacity="1">8</text><path fill="none" stroke="rgb(37,37,37)" paint-order="fill stroke markers" d=" M 897.5 594.5 L 897.5 597.5" stroke-opacity="1" stroke-miterlimit="10"/><text fill="rgb(37,37,37)" stroke="none" font-family="geogebra-sans-serif, sans-serif" font-size="12px" font-style="normal" font-weight="normal" text-decoration="normal" x="982" y="610" text-anchor="start" dominant-baseline="alphabetic" fill-opacity="1">10</text><path fill="none" stroke="rgb(37,37,37)" paint-order="fill stroke markers" d=" M 987.5 594.5 L 987.5 597.5" stroke-opacity="1" stroke-miterlimit="10"/><path fill="none" stroke="rgb(37,37,37)" paint-order="fill stroke markers" d=" M 533.5 504.5 L 536.5 504.5" stroke-opacity="1" stroke-miterlimit="10"/><path fill="none" stroke="rgb(37,37,37)" paint-order="fill stroke markers" d=" M 533.5 414.5 L 536.5 414.5" stroke-opacity="1" stroke-miterlimit="10"/><path fill="none" stroke="rgb(37,37,37)" paint-order="fill stroke markers" d=" M 533.5 324.5 L 536.5 324.5" stroke-opacity="1" stroke-miterlimit="10"/><path fill="none" stroke="rgb(37,37,37)" paint-order="fill stroke markers" d=" M 533.5 233.5 L 536.5 233.5" stroke-opacity="1" stroke-miterlimit="10"/><path fill="none" stroke="rgb(37,37,37)" paint-order="fill stroke markers" d=" M 533.5 143.5 L 536.5 143.5" stroke-opacity="1" stroke-miterlimit="10"/><path fill="none" stroke="rgb(37,37,37)" paint-order="fill stroke markers" d=" M 533.5 53.5 L 536.5 53.5" stroke-opacity="1" stroke-miterlimit="10"/><text fill="rgb(37,37,37)" stroke="none" font-family="geogebra-sans-serif, sans-serif" font-size="12px" font-style="normal" font-weight="normal" text-decoration="normal" x="512" y="509" text-anchor="start" dominant-baseline="alphabetic" fill-opacity="1">0.2</text><text fill="rgb(37,37,37)" stroke="none" font-family="geogebra-sans-serif, sans-serif" font-size="12px" font-style="normal" font-weight="normal" text-decoration="normal" x="512" y="419" text-anchor="start" dominant-baseline="alphabetic" fill-opacity="1">0.4</text><text fill="rgb(37,37,37)" stroke="none" font-family="geogebra-sans-serif, sans-serif" font-size="12px" font-style="normal" font-weight="normal" text-decoration="normal" x="512" y="329" text-anchor="start" dominant-baseline="alphabetic" fill-opacity="1">0.6</text><text fill="rgb(37,37,37)" stroke="none" font-family="geogebra-sans-serif, sans-serif" font-size="12px" font-style="normal" font-weight="normal" text-decoration="normal" x="512" y="238" text-anchor="start" dominant-baseline="alphabetic" fill-opacity="1">0.8</text><text fill="rgb(37,37,37)" stroke="none" font-family="geogebra-sans-serif, sans-serif" font-size="12px" font-style="normal" font-weight="normal" text-decoration="normal" x="522" y="148" text-anchor="start" dominant-baseline="alphabetic" fill-opacity="1">1</text><text fill="rgb(37,37,37)" stroke="none" font-family="geogebra-sans-serif, sans-serif" font-size="12px" font-style="normal" font-weight="normal" text-decoration="normal" x="512" y="58" text-anchor="start" dominant-baseline="alphabetic" fill-opacity="1">1.2</text><text fill="rgb(37,37,37)" stroke="none" font-family="geogebra-sans-serif, sans-serif" font-size="12px" font-style="normal" font-weight="normal" text-decoration="normal" x="522" y="610" text-anchor="start" dominant-baseline="alphabetic" fill-opacity="1">0</text><path fill="none" stroke="rgb(255,0,51)" paint-order="fill stroke markers" d=" M 0 594.7239405482801 L 4.179687500000114 594.7236421442072 L 8.359375 594.7233147688298 L 12.5390625 594.7229556094447 L 16.718750000000114 594.7225615802853 L 20.8984375 594.7221292960131 L 25.078125000000057 594.7216550426382 L 29.257812500000057 594.7211347456155 L 33.4375 594.7205639348459 L 37.61718750000006 594.7199377062807 L 41.79687500000006 594.7192506797984 L 45.9765625 594.7184969529965 L 50.15625000000006 594.7176700504963 L 54.3359375 594.7167628683311 L 58.515625 594.715767612937 L 62.69531250000006 594.7146757342254 L 66.875 594.7134778521615 L 71.0546875 594.7121636762221 L 75.23437500000006 594.7107219170388 L 79.4140625 594.7091401894731 L 83.59375000000006 594.7074049062909 L 87.77343750000006 594.7055011615256 L 91.953125 594.7034126025346 L 96.13281250000006 594.7011212896494 L 100.31250000000006 594.6986075422232 L 104.4921875 594.6958497697561 L 108.67187500000006 594.6928242866582 L 112.85156250000006 594.6895051090642 L 117.03125 594.6858637319688 L 121.21093750000006 594.6818688847782 L 125.39062500000006 594.6774862631964 L 129.5703125 594.6726782351594 L 133.75000000000006 594.6674035183161 L 137.92968750000006 594.6616168263121 L 142.109375 594.6552684808706 L 146.28906250000006 594.6483039863803 L 150.46875000000006 594.64066356338 L 154.6484375 594.6322816369963 L 158.82812500000006 594.6230862760044 L 163.00781250000006 594.6129985777819 L 167.1875 594.601931993972 L 171.36718750000006 594.5897915911855 L 175.54687500000006 594.5764732405405 L 179.7265625 594.5618627292523 L 183.90625000000006 594.5458347868587 L 188.08593750000006 594.52825201797 L 192.265625 594.5089637326878 L 196.44531250000006 594.4878046650177 L 200.62500000000006 594.4645935687145 L 204.8046875 594.439131679037 L 208.98437500000006 594.4112010278509 L 213.16406250000006 594.3805625983817 L 217.34375 594.3469543047105 L 221.52343750000006 594.3100887797817 L 225.70312500000006 594.2696509542803 L 229.8828125 594.2252954072137 L 234.06250000000006 594.1766434673982 L 238.24218750000006 594.1232800433121 L 242.421875 594.064750156912 L 246.6015625 594.0005551550444 L 250.78125000000006 593.930148569989 L 254.9609375 593.8529315984874 L 259.140625 593.7682481663071 L 263.32031250000006 593.6753795430149 L 267.50000000000006 593.5735384691793 L 271.6796875 593.4618627557224 L 275.85937500000006 593.3394083126311 L 280.03906250000006 593.2051415617499 L 284.21875 593.0579311859811 L 288.39843750000006 592.8965391649652 L 292.578125 592.7196110453006 L 296.7578125 592.5256653917021 L 300.9375 592.3130823643023 L 305.1171875 592.0800913667535 L 309.296875 591.8247577100739 L 313.4765625 591.5449682385386 L 317.65625 591.2384158666334 L 321.8359375 590.902582980494 L 326.015625 590.5347236637556 L 330.1953125 590.1318447168097 L 334.375 589.6906854506345 L 338.5546875 589.2076962523023 L 342.734375 588.6790159396661 L 346.9140625 588.1004479484545 L 351.09375 587.4674354269617 L 355.2734375 586.7750353527858 L 359.453125 586.0178918337542 L 363.6328125 585.1902088125358 L 367.81250000000006 584.2857224627563 L 371.9921875 583.2976736450308 L 376.171875 582.2187808855084 L 380.35156250000006 581.0412144484602 L 384.53125 579.756572199121 L 388.7109375 578.3558580940221 L 392.89062500000006 576.8294642935153 L 397.0703125 575.1671580643822 L 401.25 573.3580748276167 L 405.42968750000006 571.3907189045428 L 409.609375 569.2529737184709 L 413.7890625 566.9321234120572 L 417.96875000000006 564.4148880326612 L 422.1484375 561.6874746065259 L 426.328125 558.7356465512731 L 430.50781250000006 555.5448139450615 L 434.6875 552.1001471560875 L 438.8671875 548.3867162107488 L 443.04687500000006 544.3896580128403 L 447.2265625 540.0943730883412 L 451.40625 535.4867528901034 L 455.58593750000006 530.5534378271155 L 459.765625 525.2821050644852 L 463.9453125 519.6617837654351 L 468.12500000000006 513.6831938254031 L 472.3046875 507.33910231355145 L 476.48437500000006 500.62468984933827 L 480.6640625 493.5379170936011 L 484.84375 486.0798795501754 L 489.02343750000006 478.2551371116031 L 493.203125 470.07200342119097 L 497.3828125 461.54277935588493 L 501.56250000000006 452.6839149470518 L 505.7421875 443.5160850089803 L 509.921875 434.0641657456257 L 514.1015625 424.35710268679543 L 518.28125 414.42766440192713 L 520.37109375 409.3907535144846 L 522.4609375 404.31208138213685 L 524.55078125 399.1966404228107 L 526.640625 394.0495749924247 L 528.73046875 388.8761614572712 L 530.8203125 383.68178710816926 L 532.91015625 378.47192808998966 L 535 373.2521265350199 L 537.08984375 368.0279671008112 L 539.1796875 362.8050531223405 L 541.26953125 357.5889825943052 L 543.359375 352.38532420201466 L 545.44921875 347.19959361858855 L 547.5390625 342.0372302820249 L 549.62890625 336.90357485826695 L 551.71875 331.8038475858585 L 553.80859375 326.7431276843619 L 555.8984375 321.7263339927426 L 560.078125 311.84329229650825 L 564.2578125 302.19022070465974 L 568.4375 292.79906550062367 L 572.6171875 283.69788521799387 L 576.796875 274.9106299725361 L 580.9765625 266.4570341839247 L 585.15625 258.3526161442225 L 589.3359375 250.60877400808153 L 593.515625 243.23296493703936 L 597.6953125 236.22895236824417 L 601.875 229.59710564564114 L 606.0546875 223.33473642756536 L 610.234375 217.43645720102944 L 614.4140625 211.89454869984388 L 618.59375 206.69932485016335 L 622.7734375 201.83948587734847 L 626.953125 197.30245225245073 L 631.1328125 193.07467411714612 L 635.3125 189.14191261745282 L 639.4921875 185.48949114498214 L 643.671875 182.1025158025269 L 647.8515625 178.96606547287178 L 652.03125 176.06535268636065 L 656.2109375 173.3858570755117 L 660.390625 170.91343360189148 L 664.5703125 168.63439797248253 L 668.75 166.53559176104636 L 672.9296875 164.60442974385325 L 677.109375 162.82893187508915 L 681.2890625 161.1977421881312 L 685.46875 159.70013673383397 L 689.6484375 158.32602247143916 L 693.828125 157.06592882378266 L 698.0078125 155.9109934052267 L 702.1875 154.85294323473607 L 706.3671875 153.88407256221967 L 710.546875 152.99721826644895 L 714.7265625 152.18573362902765 L 718.90625 151.44346115151995 L 723.0859375 150.76470496173425 L 727.265625 150.1442032495915 L 731.4453125 149.57710108195596 L 735.625 149.05892386804982 L 739.8046875 148.5855516813039 L 743.984375 148.1531945883981 L 748.1640625 147.7583690905309 L 752.34375 147.39787574441425 L 756.5234375 147.06877799999864 L 760.703125 146.7683822674719 L 764.8828125 146.4942192067324 L 769.0625 146.2440262175004 L 773.2421875 146.01573109679902 L 777.421875 145.80743682208106 L 781.6015625 145.61740741228118 L 785.78125 145.44405481507277 L 789.9609375 145.28592676622213 L 794.140625 145.14169556583704 L 798.3203125 145.0101477162238 L 802.5 144.89017436677437 L 806.6796875 144.78076251261325 L 810.859375 144.68098689548754 L 815.0390625 144.5900025574556 L 819.21875 144.50703800022086 L 823.3984375 144.43138890538307 L 827.578125 144.36241237337146 L 831.7578125 144.29952164134028 L 835.9375 144.24218124279543 L 840.1171875 144.18990257416033 L 844.296875 144.14223983585413 L 848.4765625 144.09878631772443 L 852.65625 144.0591710008527 L 856.8359375 144.0230554498052 L 861.015625 143.99013097135406 L 865.1953125 143.96011601752434 L 869.375 143.9327538125416 L 873.5546875 143.90781018486206 L 877.734375 143.88507158696456 L 881.9140625 143.86434328697868 L 886.09375 143.84544771751524 L 890.2734375 143.82822296826424 L 894.453125 143.81252141003597 L 898.6328125 143.79820843894117 L 902.8125 143.78516133035424 L 906.9921875 143.77326819317238 L 911.171875 143.76242701568367 L 915.3515625 143.75254479509596 L 919.53125 143.7435367434535 L 923.7109375 143.73532556329042 L 927.890625 143.72784078694042 L 932.0703125 143.7210181739444 L 936.25 143.71479916147757 L 940.4296875 143.70913036315562 L 944.609375 143.70396311198238 L 948.7890624999999 143.69925304356804 L 952.96875 143.69495971608444 L 957.1484375 143.6910462637307 L 961.3281249999999 143.687479080765 L 965.5078125 143.68422753341366 L 969.6875 143.68126369720557 L 973.8671875 143.6785621174938 L 978.046875 143.676099591121 L 982.2265625 143.67385496736767 L 986.40625 143.67180896648136 L 990.5859375 143.66994401423858 L 994.765625 143.668244091124 L 998.9453125 143.66669459483762 L 1003.125 143.6652822149539 L 1007.3046875 143.66399481865983 L 1011.484375 143.6628213465939 L 1015.6640625 143.66175171789365 L 1019.84375 143.6607767436389 L 1024.0234375 143.6598880479487 L 1028.203125 143.65907799605532 L 1032.3828125 143.6583396287395 L 1036.5625 143.65766660256457 L 1040.7421875 143.6570531353957 L 1044.921875 143.6564939567392 L 1049.1015625 143.6559842624739 L 1053.28125 143.65551967358704 L 1057.4609375 143.6550961985604 L 1061.640625 143.65471019908426 L 1065.8203125 143.65435835880442 L 1070 143.65403765483387" stroke-opacity="0.8" stroke-linecap="round" stroke-linejoin="round" stroke-miterlimit="10" stroke-width="6.5"/><text fill="rgb(255,0,51)" stroke="none" font-family="geogebra-sans-serif, sans-serif" font-size="16px" font-style="normal" font-weight="normal" text-decoration="normal" x="8" y="594" text-anchor="start" dominant-baseline="alphabetic" fill-opacity="1">f</text></g></g></svg>