<svg xmlns="http://www.w3.org/2000/svg" style="cursor: move;" width="700" height="474"><g transform="translate(-770.773428611,-474.573277333) scale(1.0562276533121615)"><path class="link" style="stroke-width: 2px; stroke-opacity: 1; stroke: rgb(128, 128, 255); fill: none;" marker-end="" d="M768.6666666666666,611C863.1666666666666,611 863.1666666666666,489.5 957.6666666666666,489.5"></path><path class="link" style="stroke-width: 2px; stroke-opacity: 1; stroke: rgb(255, 143, 143); fill: none;" marker-end="" d="M768.6666666666666,611C863.1666666666666,611 863.1666666666666,570.5 957.6666666666666,570.5"></path><path class="link" style="stroke-width: 2px; stroke-opacity: 1; stroke: rgb(203, 203, 255); fill: none;" marker-end="" d="M768.6666666666666,611C863.1666666666666,611 863.1666666666666,651.5 957.6666666666666,651.5"></path><path class="link" style="stroke-width: 2px; stroke-opacity: 1; stroke: rgb(152, 152, 255); fill: none;" marker-end="" d="M768.6666666666666,692C863.1666666666666,692 863.1666666666666,489.5 957.6666666666666,489.5"></path><path class="link" style="stroke-width: 2px; stroke-opacity: 1; stroke: rgb(130, 130, 255); fill: none;" marker-end="" d="M768.6666666666666,692C863.1666666666666,692 863.1666666666666,570.5 957.6666666666666,570.5"></path><path class="link" style="stroke-width: 2px; stroke-opacity: 1; stroke: rgb(149, 149, 255); fill: none;" marker-end="" d="M768.6666666666666,692C863.1666666666666,692 863.1666666666666,651.5 957.6666666666666,651.5"></path><path class="link" style="stroke-width: 2px; stroke-opacity: 1; stroke: rgb(255, 192, 192); fill: none;" marker-end="" d="M957.6666666666666,489.5C1052.1666666666667,489.5 1052.1666666666667,573.5 1146.6666666666667,573.5"></path><path class="link" style="stroke-width: 2px; stroke-opacity: 1; stroke: rgb(62, 62, 255); fill: none;" marker-end="" d="M957.6666666666666,489.5C1052.1666666666667,489.5 1052.1666666666667,651.5 1146.6666666666667,651.5"></path><path class="link" style="stroke-width: 2px; stroke-opacity: 1; stroke: rgb(255, 54, 54); fill: none;" marker-end="" d="M957.6666666666666,570.5C1052.1666666666667,570.5 1052.1666666666667,573.5 1146.6666666666667,573.5"></path><path class="link" style="stroke-width: 2px; stroke-opacity: 1; stroke: rgb(159, 159, 255); fill: none;" marker-end="" d="M957.6666666666666,570.5C1052.1666666666667,570.5 1052.1666666666667,651.5 1146.6666666666667,651.5"></path><path class="link" style="stroke-width: 2px; stroke-opacity: 1; stroke: rgb(71, 71, 255); fill: none;" marker-end="" d="M957.6666666666666,651.5C1052.1666666666667,651.5 1052.1666666666667,573.5 1146.6666666666667,573.5"></path><path class="link" style="stroke-width: 2px; stroke-opacity: 1; stroke: rgb(117, 117, 255); fill: none;" marker-end="" d="M957.6666666666666,651.5C1052.1666666666667,651.5 1052.1666666666667,651.5 1146.6666666666667,651.5"></path><path class="link" style="stroke-width: 2px; stroke-opacity: 1; stroke: rgb(255, 157, 157); fill: none;" marker-end="" d="M1146.6666666666667,573.5C1241.1666666666667,573.5 1241.1666666666667,651.5 1335.6666666666667,651.5"></path><path class="link" style="stroke-width: 2px; stroke-opacity: 1; stroke: rgb(116, 116, 255); fill: none;" marker-end="" d="M1146.6666666666667,651.5C1241.1666666666667,651.5 1241.1666666666667,651.5 1335.6666666666667,651.5"></path><path class="link" style="stroke-width: 2px; stroke-opacity: 1; stroke: rgb(46, 46, 255); fill: none;" marker-end="" d="M768.6666666666666,611C863.1666666666666,611 863.1666666666666,732.5 957.6666666666666,732.5"></path><path class="link" style="stroke-width: 2px; stroke-opacity: 1; stroke: rgb(9, 9, 255); fill: none;" marker-end="" d="M768.6666666666666,611C863.1666666666666,611 863.1666666666666,813.5 957.6666666666666,813.5"></path><path class="link" style="stroke-width: 2px; stroke-opacity: 1; stroke: rgb(255, 72, 72); fill: none;" marker-end="" d="M768.6666666666666,692C863.1666666666666,692 863.1666666666666,732.5 957.6666666666666,732.5"></path><path class="link" style="stroke-width: 2px; stroke-opacity: 1; stroke: rgb(255, 13, 13); fill: none;" marker-end="" d="M768.6666666666666,692C863.1666666666666,692 863.1666666666666,813.5 957.6666666666666,813.5"></path><path class="link" style="stroke-width: 2px; stroke-opacity: 1; stroke: rgb(180, 180, 255); fill: none;" marker-end="" d="M957.6666666666666,732.5C1052.1666666666667,732.5 1052.1666666666667,573.5 1146.6666666666667,573.5"></path><path class="link" style="stroke-width: 2px; stroke-opacity: 1; stroke: rgb(255, 26, 26); fill: none;" marker-end="" d="M957.6666666666666,732.5C1052.1666666666667,732.5 1052.1666666666667,651.5 1146.6666666666667,651.5"></path><path class="link" style="stroke-width: 2px; stroke-opacity: 1; stroke: rgb(99, 99, 255); fill: none;" marker-end="" d="M957.6666666666666,813.5C1052.1666666666667,813.5 1052.1666666666667,573.5 1146.6666666666667,573.5"></path><path class="link" style="stroke-width: 2px; stroke-opacity: 1; stroke: rgb(137, 137, 255); fill: none;" marker-end="" d="M957.6666666666666,813.5C1052.1666666666667,813.5 1052.1666666666667,651.5 1146.6666666666667,651.5"></path><path class="link" style="stroke-width: 2px; stroke-opacity: 1; stroke: rgb(255, 102, 102); fill: none;" marker-end="" d="M957.6666666666666,489.5C1052.1666666666667,489.5 1052.1666666666667,729.5 1146.6666666666667,729.5"></path><path class="link" style="stroke-width: 2px; stroke-opacity: 1; stroke: rgb(67, 67, 255); fill: none;" marker-end="" d="M957.6666666666666,570.5C1052.1666666666667,570.5 1052.1666666666667,729.5 1146.6666666666667,729.5"></path><path class="link" style="stroke-width: 2px; stroke-opacity: 1; stroke: rgb(255, 80, 80); fill: none;" marker-end="" d="M957.6666666666666,651.5C1052.1666666666667,651.5 1052.1666666666667,729.5 1146.6666666666667,729.5"></path><path class="link" style="stroke-width: 2px; stroke-opacity: 1; stroke: rgb(30, 30, 255); fill: none;" marker-end="" d="M957.6666666666666,732.5C1052.1666666666667,732.5 1052.1666666666667,729.5 1146.6666666666667,729.5"></path><path class="link" style="stroke-width: 2px; stroke-opacity: 1; stroke: rgb(236, 236, 255); fill: none;" marker-end="" d="M957.6666666666666,813.5C1052.1666666666667,813.5 1052.1666666666667,729.5 1146.6666666666667,729.5"></path><path class="link" style="stroke-width: 2px; stroke-opacity: 1; stroke: rgb(255, 126, 126); fill: none;" marker-end="" d="M1146.6666666666667,729.5C1241.1666666666667,729.5 1241.1666666666667,651.5 1335.6666666666667,651.5"></path><circle r="14.5" class="node" id="0_0" style="fill: rgb(255, 255, 255); stroke: rgb(51, 51, 51);" cx="768.6666666666666" cy="611"></circle><circle r="14.5" class="node" id="0_1" style="fill: rgb(255, 255, 255); stroke: rgb(51, 51, 51);" cx="768.6666666666666" cy="692"></circle><circle r="14.5" class="node" id="1_0" style="fill: rgb(255, 255, 255); stroke: rgb(51, 51, 51);" cx="957.6666666666666" cy="489.5"></circle><circle r="14.5" class="node" id="1_1" style="fill: rgb(255, 255, 255); stroke: rgb(51, 51, 51);" cx="957.6666666666666" cy="570.5"></circle><circle r="14.5" class="node" id="1_2" style="fill: rgb(255, 255, 255); stroke: rgb(51, 51, 51);" cx="957.6666666666666" cy="651.5"></circle><circle r="14.5" class="node" id="1_3" style="fill: rgb(255, 255, 255); stroke: rgb(51, 51, 51);" cx="957.6666666666666" cy="732.5"></circle><circle r="14.5" class="node" id="1_4" style="fill: rgb(255, 255, 255); stroke: rgb(51, 51, 51);" cx="957.6666666666666" cy="813.5"></circle><circle r="14.5" class="node" id="2_0" style="fill: rgb(255, 255, 255); stroke: rgb(51, 51, 51);" cx="1146.6666666666667" cy="573.5"></circle><circle r="14.5" class="node" id="2_1" style="fill: rgb(255, 255, 255); stroke: rgb(51, 51, 51);" cx="1146.6666666666667" cy="651.5"></circle><circle r="14.5" class="node" id="2_2" style="fill: rgb(255, 255, 255); stroke: rgb(51, 51, 51);" cx="1146.6666666666667" cy="729.5"></circle><circle r="14.5" class="node" id="3_0" style="fill: rgb(255, 255, 255); stroke: rgb(51, 51, 51);" cx="1335.6666666666667" cy="651.5"></circle><text class="text" dy=".35em" style="font-size: 14px;" x="733.6666666666666" y="862.5">Camada de Entrada (ℝ²) </text><text class="text" dy=".35em" style="font-size: 14px;" x="922.6666666666666" y="862.5">Camada Oculta (ℝ⁵)</text><text class="text" dy=".35em" style="font-size: 14px;" x="1111.6666666666667" y="862.5">Camada Oculta (ℝ³)</text><text class="text" dy=".35em" style="font-size: 14px;" x="1320.6666666666667" y="862.5"> Saída (ℝ¹)</text></g><defs><marker id="arrow" viewBox="0 -5 10 10" markerWidth="7" markerHeight="7" orient="auto" refX="52.599999999999994"><path d="M0,-5L10,0L0,5" style="stroke: rgb(80, 80, 80); fill: none;"></path></marker></defs></svg>
